<?xml version="1.0" standalone="no"?><!DOCTYPE svg PUBLIC "-//W3C//DTD SVG 1.1//EN" "http://www.w3.org/Graphics/SVG/1.1/DTD/svg11.dtd"><svg t="1739069003943" class="icon" viewBox="0 0 1024 1024" version="1.1" xmlns="http://www.w3.org/2000/svg" p-id="5339" xmlns:xlink="http://www.w3.org/1999/xlink" width="200" height="200" fill="#7b7b7b"><path d="M832 128c-70.72 0-128 57.28-128 128h-64v64h192V256h-64c0-38.112 25.888-64 64-64 38.112 0 64 25.888 64 64v192H32v64h38.016l48.96 243.008v0.992a97.984 97.984 0 0 0 64 71.008L160 896h64l20.992-64h534.016L800 896h64l-23.008-68.992c33.504-10.24 59.52-37.12 67.008-71.008v-0.992L954.016 512H992v-64h-32V256c0-70.72-57.28-128-128-128zM135.008 512h754.976l-44.992 231.008c-3.744 13.856-15.488 24.992-32 24.992H214.016c-17.152 0-28.768-11.36-32-26.016z" p-id="5340"></path></svg>