<svg width="20" height="20" viewBox="0 0 40 40" xmlns="http://www.w3.org/2000/svg" fill="var(--color-ref-neutral5)"><path d="M39.414 9.707A.586.586 0 0 0 40 9.121V.586A.586.586 0 0 0 39.414 0h-27.95a.586.586 0 0 0 0 1.172h7.95v18.242H1.172v-7.95a.586.586 0 0 0-1.172 0v27.95c0 .324.262.586.586.586h27.95a.586.586 0 1 0 0-1.172h-7.95V20.586h18.242v18.242h-7.95a.586.586 0 0 0 0 1.172h8.536a.586.586 0 0 0 .586-.586v-27.95a.586.586 0 0 0-1.172 0v7.95H20.586V1.172h18.242v7.95c0 .323.263.585.586.585zM1.172 20.586h18.242v18.242H1.172V20.586z"></path><path d="M33.795 19.126a.586.586 0 0 0 .586-.586v-1.48l2.093-2.093h1.48a.586.586 0 1 0 0-1.172h-1.722a.585.585 0 0 0-.414.172l-2.437 2.436a.584.584 0 0 0-.172.414v1.723c0 .323.263.586.586.586zM25.62 19.126a.586.586 0 0 0 .585-.586v-1.723a.587.587 0 0 0-.171-.414l-2.437-2.436a.586.586 0 0 0-.414-.172H21.46a.586.586 0 1 0 0 1.172h1.48l2.093 2.093v1.48c0 .323.263.586.586.586zM21.46 6.79h1.723a.585.585 0 0 0 .414-.17l2.436-2.437c.11-.11.172-.259.172-.414V2.046a.586.586 0 0 0-1.172 0v1.48L22.94 5.62h-1.48a.586.586 0 0 0 0 1.172zM37.954 5.619h-1.48l-2.093-2.093v-1.48a.586.586 0 0 0-1.172 0V3.77c0 .155.062.304.172.414l2.436 2.436c.11.11.26.172.415.172h1.722a.586.586 0 1 0 0-1.172zM28.018 14.56l.34-.341a1.91 1.91 0 0 1 2.698 0l.34.34a.584.584 0 0 0 .829 0l1.748-1.748a.585.585 0 0 0 0-.83l-.34-.34a1.91 1.91 0 0 1 0-2.697l.34-.34a.586.586 0 0 0 0-.829l-1.748-1.748a.586.586 0 0 0-.83 0l-.34.34a1.91 1.91 0 0 1-2.697 0l-.34-.34a.586.586 0 0 0-.829 0l-1.748 1.748a.586.586 0 0 0 0 .829l.34.34a1.91 1.91 0 0 1 0 2.698l-.34.34a.587.587 0 0 0 0 .829l1.748 1.748c.23.229.6.229.829 0zM26.683 8.19l.922-.922a3.083 3.083 0 0 0 4.204 0l.922.922a3.083 3.083 0 0 0 0 4.204l-.922.922a3.069 3.069 0 0 0-2.102-.827c-.756 0-1.512.275-2.102.827l-.922-.922a3.083 3.083 0 0 0 0-4.204zM.586 9.707a.586.586 0 0 0 .586-.586v-7.95h7.95a.586.586 0 1 0 0-1.171H.585A.586.586 0 0 0 0 .586V9.12c0 .324.262.586.586.586zM18.54 13.795h-1.722a.585.585 0 0 0-.415.172l-2.436 2.436a.586.586 0 0 0-.172.414v1.723a.586.586 0 0 0 1.172 0v-1.48l2.093-2.093h1.48a.586.586 0 1 0 0-1.172zM6.205 19.126a.586.586 0 0 0 .585-.586v-1.723a.587.587 0 0 0-.171-.414l-2.436-2.436a.586.586 0 0 0-.415-.172H2.046a.586.586 0 1 0 0 1.172h1.48l2.093 2.093v1.48c0 .323.262.586.586.586z"></path><path d="M2.046 6.79h1.722a.585.585 0 0 0 .414-.17L6.62 4.182c.11-.11.171-.259.171-.414V2.046a.586.586 0 0 0-1.171 0v1.48L3.526 5.62h-1.48a.586.586 0 1 0 0 1.172zM14.381 1.46a.586.586 0 0 0-.586.586V3.77c0 .155.062.304.172.414l2.436 2.436c.11.11.26.172.415.172h1.722a.586.586 0 1 0 0-1.172h-1.48l-2.093-2.093v-1.48a.586.586 0 0 0-.586-.586zM11.982 6.027l-.34.34a1.91 1.91 0 0 1-2.698 0l-.34-.34a.587.587 0 0 0-.829 0L6.027 7.775a.586.586 0 0 0 0 .829l.34.34a1.91 1.91 0 0 1 0 2.698l-.34.34a.586.586 0 0 0 0 .829l1.748 1.748c.23.229.6.229.829 0l.34-.34a1.91 1.91 0 0 1 2.698 0l.34.34a.584.584 0 0 0 .829 0l1.748-1.748a.584.584 0 0 0 0-.829l-.34-.34a1.91 1.91 0 0 1 0-2.697l.34-.341a.586.586 0 0 0 0-.829L12.81 6.027a.586.586 0 0 0-.829 0zm1.335 6.368l-.922.922a3.07 3.07 0 0 0-2.102-.827c-.756 0-1.512.275-2.102.827l-.922-.922a3.083 3.083 0 0 0 0-4.204l.922-.922a3.083 3.083 0 0 0 4.204 0l.922.922a3.083 3.083 0 0 0 0 4.204zM37.954 33.21h-1.722a.585.585 0 0 0-.414.17l-2.437 2.437a.585.585 0 0 0-.172.414v1.723a.586.586 0 0 0 1.172 0v-1.48l2.093-2.093h1.48a.586.586 0 1 0 0-1.172zM25.62 38.54a.586.586 0 0 0 .585-.586V36.23a.586.586 0 0 0-.171-.414l-2.437-2.436a.587.587 0 0 0-.414-.172H21.46a.586.586 0 0 0 0 1.172h1.48l2.093 2.093v1.48c0 .323.263.586.586.586zM21.46 26.205h1.723a.585.585 0 0 0 .414-.172l2.436-2.436c.11-.11.172-.26.172-.415V21.46a.586.586 0 0 0-1.172 0v1.48l-2.093 2.093h-1.48a.586.586 0 0 0 0 1.172zM33.795 20.874a.586.586 0 0 0-.586.586v1.722c0 .156.062.305.172.415l2.436 2.436c.11.11.26.172.415.172h1.722a.586.586 0 1 0 0-1.172h-1.48l-2.093-2.093v-1.48a.586.586 0 0 0-.586-.586zM28.018 33.973l.34-.34a1.91 1.91 0 0 1 2.698 0l.34.34a.585.585 0 0 0 .829 0l1.748-1.748a.585.585 0 0 0 0-.829l-.34-.34a1.91 1.91 0 0 1 0-2.697l.34-.341a.586.586 0 0 0 0-.829l-1.748-1.748a.586.586 0 0 0-.83 0l-.34.34a1.91 1.91 0 0 1-2.697 0l-.34-.34a.586.586 0 0 0-.829 0l-1.748 1.748a.586.586 0 0 0 0 .829l.34.34a1.91 1.91 0 0 1 0 2.698l-.34.34a.586.586 0 0 0 0 .829l1.748 1.748c.23.229.6.229.829 0zm-1.335-6.368l.922-.922a3.082 3.082 0 0 0 4.204 0l.922.922a3.083 3.083 0 0 0 0 4.204l-.922.922a3.07 3.07 0 0 0-2.102-.827c-.756 0-1.512.275-2.102.827l-.922-.922a3.083 3.083 0 0 0 0-4.204zM18.54 33.21h-1.722a.585.585 0 0 0-.415.17l-2.436 2.437a.585.585 0 0 0-.172.414v1.723a.586.586 0 0 0 1.172 0v-1.48l2.093-2.093h1.48a.586.586 0 1 0 0-1.172zM4.183 33.38a.587.587 0 0 0-.415-.17H2.046a.586.586 0 0 0 0 1.171h1.48l2.093 2.093v1.48a.586.586 0 0 0 1.171 0V36.23a.586.586 0 0 0-.171-.414l-2.436-2.436zM2.046 26.205h1.722a.585.585 0 0 0 .414-.172l2.437-2.436c.11-.11.171-.26.171-.415V21.46a.586.586 0 0 0-1.171 0v1.48l-2.093 2.093h-1.48a.586.586 0 0 0 0 1.172zM18.54 25.033h-1.48l-2.093-2.093v-1.48a.586.586 0 0 0-1.172 0v1.722c0 .156.062.305.172.415l2.436 2.436c.11.11.26.172.415.172h1.722a.586.586 0 1 0 0-1.172zM14.73 31.81a.586.586 0 0 0-.17-.414l-.341-.34a1.91 1.91 0 0 1 0-2.697l.34-.34a.586.586 0 0 0 0-.83l-1.748-1.748a.586.586 0 0 0-.829 0l-.34.34a1.91 1.91 0 0 1-2.698 0l-.34-.34a.587.587 0 0 0-.829 0L6.027 27.19a.585.585 0 0 0 0 .83l.34.34a1.91 1.91 0 0 1 0 2.697l-.34.34a.586.586 0 0 0 0 .829l1.748 1.748c.23.23.6.23.83 0l.34-.34a1.91 1.91 0 0 1 2.697 0l.34.34a.584.584 0 0 0 .829 0l1.748-1.748a.585.585 0 0 0 .172-.414zm-2.335.921a3.069 3.069 0 0 0-2.102-.827c-.756 0-1.512.275-2.102.827l-.922-.922a3.083 3.083 0 0 0 0-4.204l.922-.922a3.083 3.083 0 0 0 4.204 0l.922.922a3.083 3.083 0 0 0 0 4.204l-.922.922z"></path></svg>