<svg width="20" height="20" viewBox="0 0 24 24" xmlns="http://www.w3.org/2000/svg" fill="var(--color-ref-neutral5)"><path d="M2 24a2 2 0 0 1-2-2V2a2 2 0 0 1 2-2h20a2 2 0 0 1 2 2v20a2 2 0 0 1-2 2zm6-8.4a.4.4 0 0 1-.792.08L7.2 15.6 7.199 12H.8v10a1.2 1.2 0 0 0 1.077 1.194L2 23.2h5.199l.001-4.8a.4.4 0 0 1 .792-.08L8 18.4v4.8h14a1.2 1.2 0 0 0 1.194-1.077L23.2 22V12H10.4a.4.4 0 0 1-.08-.792l.08-.008h12.8V2A1.2 1.2 0 0 0 22.123.806L22 .8H8v2.8a.4.4 0 0 1-.792.08L7.2 3.6 7.199.8H2A1.2 1.2 0 0 0 .806 1.877L.8 2v9.2h6.399L7.2 6.4a.4.4 0 0 1 .792-.08L8 6.4v9.2z" fill-rule="nonzero"></path></svg>