<svg width="16" height="16" viewBox="0 0 30 30" xmlns="http://www.w3.org/2000/svg" class="mr-6 align-middle w-18 h-18 fill-font stroke-font"><path fill-rule="evenodd" clip-rule="evenodd" d="M19.688 5.636c-2.257 0-4.155 1.618-4.593 3.75H2.812a.938.938 0 0 0 0 1.875h12.283c.438 2.133 2.336 3.75 4.592 3.75 2.257 0 4.155-1.617 4.593-3.75h2.907a.938.938 0 0 0 0-1.875H24.28c-.438-2.132-2.336-3.75-4.593-3.75zm0 1.875a2.798 2.798 0 0 1 2.812 2.813 2.798 2.798 0 0 1-2.813 2.812 2.798 2.798 0 0 1-2.812-2.812 2.798 2.798 0 0 1 2.813-2.813zM10.313 15.011c-2.257 0-4.155 1.618-4.593 3.75H2.813a.937.937 0 1 0 0 1.875H5.72c.438 2.133 2.336 3.75 4.593 3.75 2.256 0 4.154-1.617 4.592-3.75h12.283a.938.938 0 0 0 0-1.875H14.905c-.438-2.132-2.336-3.75-4.592-3.75zm0 1.875a2.798 2.798 0 0 1 2.812 2.813 2.798 2.798 0 0 1-2.813 2.812A2.798 2.798 0 0 1 7.5 19.7a2.798 2.798 0 0 1 2.813-2.813z"></path></svg>